<svg xmlns="http://www.w3.org/2000/svg" width="40.171" height="40.162" viewBox="0 0 40.171 40.162">
  <path id="instagram" d="M20.085,12.022a10.3,10.3,0,1,0,10.3,10.3A10.281,10.281,0,0,0,20.085,12.022Zm0,16.992a6.694,6.694,0,1,1,6.694-6.694,6.707,6.707,0,0,1-6.694,6.694ZM33.2,11.6a2.4,2.4,0,1,1-2.4-2.4A2.4,2.4,0,0,1,33.2,11.6Zm6.82,2.438c-.152-3.217-.887-6.067-3.244-8.415s-5.2-3.083-8.415-3.244c-3.316-.188-13.255-.188-16.57,0-3.208.152-6.058.887-8.415,3.235S.3,10.812.136,14.029c-.188,3.316-.188,13.255,0,16.57.152,3.217.887,6.067,3.244,8.415s5.2,3.083,8.415,3.244c3.316.188,13.255.188,16.57,0,3.217-.152,6.067-.887,8.415-3.244s3.083-5.2,3.244-8.415c.188-3.316.188-13.246,0-16.561ZM35.741,34.158a6.778,6.778,0,0,1-3.818,3.818c-2.644,1.049-8.917.807-11.839.807s-9.2.233-11.839-.807a6.778,6.778,0,0,1-3.818-3.818c-1.049-2.644-.807-8.917-.807-11.839s-.233-9.2.807-11.839A6.778,6.778,0,0,1,8.246,6.663c2.644-1.049,8.917-.807,11.839-.807s9.2-.233,11.839.807a6.778,6.778,0,0,1,3.818,3.818c1.049,2.644.807,8.917.807,11.839S36.79,31.523,35.741,34.158Z" transform="translate(0.005 -2.238)"/>
</svg>
