<svg xmlns="http://www.w3.org/2000/svg" width="33.243" height="33.236" viewBox="0 0 33.243 33.236"><defs><style>.a{fill:#5579b7;}</style></defs><path class="a" d="M16.62,10.334a8.521,8.521,0,1,0,8.521,8.521A8.508,8.508,0,0,0,16.62,10.334Zm0,14.061a5.54,5.54,0,1,1,5.54-5.54,5.55,5.55,0,0,1-5.54,5.54ZM27.478,9.986A1.988,1.988,0,1,1,25.49,8,1.983,1.983,0,0,1,27.478,9.986ZM33.121,12a9.836,9.836,0,0,0-2.685-6.964,9.9,9.9,0,0,0-6.964-2.685C20.729,2.2,12.5,2.2,9.76,2.355A9.886,9.886,0,0,0,2.8,5.032,9.868,9.868,0,0,0,.112,12c-.156,2.744-.156,10.969,0,13.713A9.836,9.836,0,0,0,2.8,32.672,9.913,9.913,0,0,0,9.76,35.357c2.744.156,10.969.156,13.713,0a9.836,9.836,0,0,0,6.964-2.685,9.9,9.9,0,0,0,2.685-6.964c.156-2.744.156-10.961,0-13.705Zm-3.545,16.65a5.609,5.609,0,0,1-3.159,3.159c-2.188.868-7.379.667-9.8.667s-7.617.193-9.8-.667a5.609,5.609,0,0,1-3.159-3.159C2.8,26.465,3,21.273,3,18.856s-.193-7.617.667-9.8A5.609,5.609,0,0,1,6.823,5.9c2.188-.868,7.379-.667,9.8-.667s7.617-.193,9.8.667a5.609,5.609,0,0,1,3.159,3.159c.868,2.188.667,7.379.667,9.8S30.444,26.472,29.576,28.653Z" transform="translate(0.005 -2.238)"/></svg>