<svg xmlns="http://www.w3.org/2000/svg" width="33.232" height="33.232" viewBox="0 0 33.232 33.232"><defs><style>.a{fill:#5579b7;}</style></defs><path class="a" d="M30.858,2.25H2.366A2.384,2.384,0,0,0,0,4.646v28.44a2.384,2.384,0,0,0,2.366,2.4H30.858a2.39,2.39,0,0,0,2.374-2.4V4.646A2.39,2.39,0,0,0,30.858,2.25ZM10.044,30.735H5.118V14.875h4.933V30.735ZM7.581,12.709a2.856,2.856,0,1,1,2.856-2.856,2.857,2.857,0,0,1-2.856,2.856ZM28.507,30.735H23.581V23.02c0-1.84-.037-4.206-2.559-4.206-2.567,0-2.96,2-2.96,4.072v7.848H13.137V14.875h4.725v2.166h.067a5.188,5.188,0,0,1,4.666-2.559c4.985,0,5.912,3.286,5.912,7.559Z" transform="translate(0 -2.25)"/></svg>