<svg xmlns="http://www.w3.org/2000/svg" width="39.932" height="39.932" viewBox="0 0 39.932 39.932">
  <path id="linkedin" d="M37.08,2.25H2.843A2.865,2.865,0,0,0,0,5.129V39.3a2.865,2.865,0,0,0,2.843,2.879H37.08A2.872,2.872,0,0,0,39.932,39.3V5.129A2.872,2.872,0,0,0,37.08,2.25ZM12.069,36.477H6.15V17.421h5.927V36.477ZM9.109,14.818a3.432,3.432,0,1,1,3.432-3.432,3.433,3.433,0,0,1-3.432,3.432ZM34.254,36.477H28.336v-9.27c0-2.211-.045-5.054-3.075-5.054-3.084,0-3.556,2.407-3.556,4.893v9.43H15.786V17.421h5.678v2.6h.08a6.234,6.234,0,0,1,5.606-3.075c5.99,0,7.1,3.949,7.1,9.083Z" transform="translate(0 -2.25)" fill="#0574b1"/>
</svg>
