<svg xmlns="http://www.w3.org/2000/svg" width="19.92" height="26.145" viewBox="0 0 19.92 26.145"><defs><style>.a{fill:white;}</style></defs><path class="a" d="M24.18,11.949H22.935V9.459a6.225,6.225,0,0,0-12.45,0v2.49H9.24a2.5,2.5,0,0,0-2.49,2.49v12.45a2.5,2.5,0,0,0,2.49,2.49H24.18a2.5,2.5,0,0,0,2.49-2.49V14.439A2.5,2.5,0,0,0,24.18,11.949ZM16.71,23.279a2.49,2.49,0,1,1,2.49-2.49A2.5,2.5,0,0,1,16.71,23.279Zm3.86-11.329H12.85V9.459a3.86,3.86,0,0,1,7.719,0Z" transform="translate(-6.75 -3.234)"/></svg>