<svg xmlns="http://www.w3.org/2000/svg" width="21.77" height="21.77" viewBox="0 0 21.77 21.77"><defs><style>.a{fill:none;}.b,.d{fill:#ff943b;}.c,.d{stroke:none;}</style></defs><g transform="translate(-896.873 -306.23)"><g class="a" transform="translate(896.873 306.23)"><path class="c" d="M10.885,0A10.885,10.885,0,1,1,0,10.885,10.885,10.885,0,0,1,10.885,0Z"/><path class="d" d="M 10.8851318359375 1.000001907348633 C 5.434452056884766 1.000001907348633 1.000001907348633 5.434452056884766 1.000001907348633 10.8851318359375 C 1.000001907348633 16.33581161499023 5.434452056884766 20.77026176452637 10.8851318359375 20.77026176452637 C 16.33581161499023 20.77026176452637 20.77026176452637 16.33581161499023 20.77026176452637 10.8851318359375 C 20.77026176452637 5.434452056884766 16.33581161499023 1.000001907348633 10.8851318359375 1.000001907348633 M 10.8851318359375 1.9073486328125e-06 C 16.89682197570801 1.9073486328125e-06 21.77026176452637 4.873441696166992 21.77026176452637 10.8851318359375 C 21.77026176452637 16.89682197570801 16.89682197570801 21.77026176452637 10.8851318359375 21.77026176452637 C 4.873441696166992 21.77026176452637 1.9073486328125e-06 16.89682197570801 1.9073486328125e-06 10.8851318359375 C 1.9073486328125e-06 4.873441696166992 4.873441696166992 1.9073486328125e-06 10.8851318359375 1.9073486328125e-06 Z"/></g><path class="b" d="M8.58,0A8.58,8.58,0,1,1,0,8.58,8.58,8.58,0,0,1,8.58,0Z" transform="translate(899.177 308.535)"/></g></svg>