<svg xmlns="http://www.w3.org/2000/svg" width="26.109" height="28.677" viewBox="0 0 26.109 28.677"><defs><style>.a{fill:none;stroke:#fff;stroke-linecap:round;stroke-linejoin:round;stroke-width:3px;}</style></defs><g transform="translate(-3 -1.5)"><path class="a" d="M30.2,6.852A3.852,3.852,0,1,1,26.352,3,3.852,3.852,0,0,1,30.2,6.852Z" transform="translate(-2.594)"/><path class="a" d="M12.2,17.352A3.852,3.852,0,1,1,8.352,13.5,3.852,3.852,0,0,1,12.2,17.352Z" transform="translate(0 -1.513)"/><path class="a" d="M30.2,27.852A3.852,3.852,0,1,1,26.352,24,3.852,3.852,0,0,1,30.2,27.852Z" transform="translate(-2.594 -3.026)"/><path class="a" d="M12.885,20.265l8.769,5.11" transform="translate(-1.208 -2.488)"/><path class="a" d="M21.641,9.765l-8.756,5.11" transform="translate(-1.208 -0.975)"/></g></svg>