<svg xmlns="http://www.w3.org/2000/svg" width="37.301" height="37.301" viewBox="0 0 37.301 37.301"><defs><style>.a{fill:#5579b7;}</style></defs><path class="a" d="M31.714,7.67A18.49,18.49,0,0,0,2.623,29.976L0,39.551l9.8-2.573a18.428,18.428,0,0,0,8.834,2.248h.008A18.662,18.662,0,0,0,37.3,20.742,18.557,18.557,0,0,0,31.714,7.67ZM18.642,36.112a15.336,15.336,0,0,1-7.826-2.14l-.558-.333L4.446,35.163l1.549-5.67-.366-.583a15.393,15.393,0,1,1,28.55-8.168,15.535,15.535,0,0,1-15.536,15.37Zm8.426-11.507c-.458-.233-2.731-1.349-3.156-1.5s-.733-.233-1.041.233-1.191,1.5-1.465,1.815-.541.35-1,.117c-2.714-1.357-4.5-2.423-6.286-5.5-.475-.816.475-.758,1.357-2.523a.856.856,0,0,0-.042-.808c-.117-.233-1.041-2.506-1.424-3.43-.375-.9-.758-.774-1.041-.791-.266-.017-.574-.017-.883-.017a1.711,1.711,0,0,0-1.232.574,5.19,5.19,0,0,0-1.615,3.855,9.048,9.048,0,0,0,1.882,4.779c.233.308,3.255,4.971,7.893,6.977,2.931,1.266,4.08,1.374,5.545,1.157.891-.133,2.731-1.116,3.114-2.2a3.863,3.863,0,0,0,.266-2.2C27.834,24.947,27.526,24.83,27.068,24.605Z" transform="translate(0 -2.25)"/></svg>