<svg xmlns="http://www.w3.org/2000/svg" width="45.614" height="45.614" viewBox="0 0 45.614 45.614">
  <path id="whatsapp" d="M38.782,8.878A22.611,22.611,0,0,0,3.207,36.155L0,47.864l11.984-3.146a22.535,22.535,0,0,0,10.8,2.749h.01a22.821,22.821,0,0,0,22.817-22.6A22.692,22.692,0,0,0,38.782,8.878ZM22.8,43.659a18.754,18.754,0,0,1-9.571-2.617l-.682-.407L5.437,42.5l1.894-6.934-.448-.713A18.824,18.824,0,1,1,41.8,24.864,19,19,0,0,1,22.8,43.659ZM33.1,29.588c-.56-.285-3.34-1.649-3.859-1.833s-.9-.285-1.273.285-1.456,1.833-1.792,2.22-.662.428-1.222.143c-3.319-1.66-5.5-2.963-7.687-6.72-.58-1,.58-.927,1.66-3.085a1.047,1.047,0,0,0-.051-.988c-.143-.285-1.273-3.065-1.741-4.195-.458-1.1-.927-.947-1.273-.967-.326-.02-.7-.02-1.079-.02a2.092,2.092,0,0,0-1.507.7A6.347,6.347,0,0,0,11.3,19.844c0,2.78,2.026,5.468,2.3,5.844s3.981,6.078,9.652,8.532c3.584,1.548,4.989,1.68,6.781,1.415,1.089-.163,3.34-1.364,3.808-2.688a4.724,4.724,0,0,0,.326-2.688C34.037,30.005,33.661,29.863,33.1,29.588Z" transform="translate(0 -2.25)" fill="#24d366"/>
</svg>
