<svg xmlns="http://www.w3.org/2000/svg" width="31.249" height="31.249" viewBox="0 0 31.249 31.249"><defs><style>.a{fill:#fff;}</style></defs><path class="a" d="M26.569,6.791A15.49,15.49,0,0,0,2.2,25.478L0,33.5l8.21-2.155a15.438,15.438,0,0,0,7.4,1.883h.007A15.634,15.634,0,0,0,31.249,17.742a15.546,15.546,0,0,0-4.68-10.951ZM15.618,30.619a12.848,12.848,0,0,1-6.557-1.793l-.467-.279L3.725,29.823l1.3-4.75-.307-.488a12.9,12.9,0,1,1,23.918-6.843A13.015,13.015,0,0,1,15.618,30.619Zm7.059-9.64c-.384-.2-2.288-1.13-2.644-1.256s-.614-.2-.872.2-1,1.256-1.228,1.521-.453.293-.837.1a10.532,10.532,0,0,1-5.266-4.6c-.4-.684.4-.635,1.137-2.114a.717.717,0,0,0-.035-.677c-.1-.2-.872-2.1-1.193-2.874-.314-.753-.635-.649-.872-.663s-.481-.014-.739-.014a1.433,1.433,0,0,0-1.032.481A4.348,4.348,0,0,0,7.743,14.3a7.58,7.58,0,0,0,1.576,4c.2.258,2.727,4.164,6.613,5.845,2.455,1.06,3.418,1.151,4.646.97a3.963,3.963,0,0,0,2.609-1.841,3.236,3.236,0,0,0,.223-1.841C23.318,21.265,23.06,21.167,22.677,20.979Z" transform="translate(0 -2.25)"/></svg>