<?xml version="1.0"?>
<svg xmlns="http://www.w3.org/2000/svg" viewBox="0 0 512 512" width="512" height="512"><g id="Social_Distancing-3" data-name="Social Distancing"><g id="Outline"><circle cx="256" cy="368" r="8"/><path d="M224,360H144V344a8,8,0,0,0-16,0v48a8,8,0,0,0,16,0V376h80a8,8,0,0,0,0-16Z"/><path d="M384,392V344a8,8,0,0,0-16,0v16H288a8,8,0,0,0,0,16h80v16a8,8,0,0,0,16,0Z"/><path d="M259.723,176.963,239.582,197.1l-43.816-37.556,12.984-12.985L235.2,166.4a8,8,0,0,0,10.457-.743L304,107.313,316.687,120l-11.724,11.723a8,8,0,0,0,11.314,11.314l17.38-17.38a8,8,0,0,0,0-11.314l-24-24a8,8,0,0,0-11.314,0L239.25,149.437,212.8,129.6a8,8,0,0,0-10.457.743l-24,24a8,8,0,0,0,.45,11.731C237.431,215.4,234.62,216,240,216c5.816,0,5.76-3.545,31.038-27.723a8,8,0,0,0-11.314-11.314Z"/><circle cx="288" cy="160" r="8"/><path d="M102.451,147.771C115.625,125.735,111.058,93.642,112,82A26.03,26.03,0,0,0,86,56H48c-12.178,0-16.895-4.14-17.675-4.919C26.29,44.912,16,47.52,16,56V86a26.038,26.038,0,0,0,16.136,24.051c.768,18.488,4.99,30.323,9.413,37.72C17.3,156.608,0,174.078,0,200v80A40.067,40.067,0,0,0,32,319.2V419.35A40.051,40.051,0,0,0,8,456a8,8,0,0,0,8,8h88a8,8,0,0,0,8-8V319.2A40.067,40.067,0,0,0,144,280V200C144,174.08,126.708,156.609,102.451,147.771ZM85.314,144H58.686c-2.684-2.615-9.109-10.986-10.44-32H95.754C94.423,133.014,88,141.385,85.314,144ZM32,69.748C43.815,73.454,53.19,71.389,86,72A10.011,10.011,0,0,1,96,82V96H42A10.011,10.011,0,0,1,32,86ZM56.729,160H87.256C92.229,161,128,169.284,128,200v24H112V208a8,8,0,0,0-16,0v64H48V208a8,8,0,0,0-16,0v16H16V200C16,169.094,51.523,161.017,56.729,160ZM16,280V240H32v62.624A24.039,24.039,0,0,1,16,280Zm32,8H96V416H80V312a8,8,0,0,0-16,0V416H48Zm0,144h.022a39.841,39.841,0,0,0-7.217,16H25.371A24.042,24.042,0,0,1,48,432Zm48,16H57.371A24.042,24.042,0,0,1,80,432H96Zm16-145.376V240h16v40A24.039,24.039,0,0,1,112,302.624Z"/><path d="M470.451,147.771C483.625,125.735,479.058,93.642,480,82a26.03,26.03,0,0,0-26-26H416c-12.178,0-16.895-4.14-17.675-4.919C394.29,44.912,384,47.52,384,56V86a26.038,26.038,0,0,0,16.136,24.051c.768,18.488,4.99,30.323,9.413,37.72C385.3,156.608,368,174.078,368,200v80A40.067,40.067,0,0,0,400,319.2V419.35A40.051,40.051,0,0,0,376,456a8,8,0,0,0,8,8h88a8,8,0,0,0,8-8V319.2A40.067,40.067,0,0,0,512,280V200C512,174.08,494.708,156.609,470.451,147.771ZM453.314,144H426.686c-2.684-2.615-9.109-10.986-10.44-32h47.508C462.423,133.014,456,141.385,453.314,144ZM400,69.748c11.815,3.706,21.19,1.641,54,2.252a10.011,10.011,0,0,1,10,10V96H410a10.011,10.011,0,0,1-10-10ZM424.729,160h30.527c4.973,1,40.744,9.284,40.744,40v24H480V208a8,8,0,0,0-16,0v64H416V208a8,8,0,0,0-16,0v16H384V200C384,169.094,419.523,161.017,424.729,160ZM384,280V240h16v62.624A24.039,24.039,0,0,1,384,280Zm32,8h48V416H448V312a8,8,0,0,0-16,0V416H416Zm0,144h.022a39.841,39.841,0,0,0-7.217,16H393.371A24.042,24.042,0,0,1,416,432Zm48,16H425.371A24.042,24.042,0,0,1,448,432h16Zm16-145.376V240h16v40A24.039,24.039,0,0,1,480,302.624Z"/></g></g></svg>
