<svg xmlns="http://www.w3.org/2000/svg" width="290" height="290" viewBox="0 0 290 290"><defs><style>.a{fill:#5579b7;}</style></defs><ellipse class="a" cx="5" cy="5" rx="5" ry="5" transform="translate(210 280)"/><ellipse class="a" cx="5" cy="5" rx="5" ry="5" transform="translate(280 280)"/><ellipse class="a" cx="5" cy="5" rx="5" ry="5" transform="translate(210 210)"/><ellipse class="a" cx="5" cy="5" rx="5" ry="5" transform="translate(280 210)"/><ellipse class="a" cx="5" cy="5" rx="5" ry="5" transform="translate(210 70)"/><ellipse class="a" cx="5" cy="5" rx="5" ry="5" transform="translate(280 70)"/><ellipse class="a" cx="5" cy="5" rx="5" ry="5" transform="translate(210 0)"/><ellipse class="a" cx="5" cy="5" rx="5" ry="5" transform="translate(280 0)"/><ellipse class="a" cx="5" cy="5" rx="5" ry="5" transform="translate(210 140)"/><ellipse class="a" cx="5" cy="5" rx="5" ry="5" transform="translate(280 140)"/><ellipse class="a" cx="5" cy="5" rx="5" ry="5" transform="translate(70 0)"/><ellipse class="a" cx="5" cy="5" rx="5" ry="5" transform="translate(140 0)"/><ellipse class="a" cx="5" cy="5" rx="5" ry="5" transform="translate(70 70)"/><ellipse class="a" cx="5" cy="5" rx="5" ry="5" transform="translate(140 70)"/><ellipse class="a" cx="5" cy="5" rx="5" ry="5" transform="translate(0 70)"/><ellipse class="a" cx="5" cy="5" rx="5" ry="5" transform="translate(0 0)"/></svg>