<svg xmlns="http://www.w3.org/2000/svg" width="220" height="360" viewBox="0 0 220 360"><defs><style>.a{fill:#5579b7;}</style></defs><g transform="translate(-48.353 187.899)"><circle class="a" cx="5" cy="5" r="5" transform="translate(258.353 162.101)"/><circle class="a" cx="5" cy="5" r="5" transform="translate(188.353 162.101)"/><circle class="a" cx="5" cy="5" r="5" transform="translate(258.353 92.101)"/><circle class="a" cx="5" cy="5" r="5" transform="translate(188.353 92.101)"/><circle class="a" cx="5" cy="5" r="5" transform="translate(258.353 22.101)"/><circle class="a" cx="5" cy="5" r="5" transform="translate(188.353 22.101)"/><circle class="a" cx="5" cy="5" r="5" transform="translate(258.353 -117.899)"/><circle class="a" cx="5" cy="5" r="5" transform="translate(188.353 -117.899)"/><circle class="a" cx="5" cy="5" r="5" transform="translate(258.353 -187.899)"/><circle class="a" cx="5" cy="5" r="5" transform="translate(188.353 -187.899)"/><circle class="a" cx="5" cy="5" r="5" transform="translate(258.353 -47.899)"/><circle class="a" cx="5" cy="5" r="5" transform="translate(188.353 -47.899)"/><circle class="a" cx="5" cy="5" r="5" transform="translate(118.353 162.101)"/><circle class="a" cx="5" cy="5" r="5" transform="translate(118.353 92.101)"/><circle class="a" cx="5" cy="5" r="5" transform="translate(48.353 162.101)"/><circle class="a" cx="5" cy="5" r="5" transform="translate(48.353 22.101)"/><circle class="a" cx="5" cy="5" r="5" transform="translate(118.353 22.101)"/><circle class="a" cx="5" cy="5" r="5" transform="translate(48.353 92.101)"/><circle class="a" cx="5" cy="5" r="5" transform="translate(118.353 -47.899)"/><circle class="a" cx="5" cy="5" r="5" transform="translate(118.353 -117.899)"/><circle class="a" cx="5" cy="5" r="5" transform="translate(48.353 -117.899)"/><circle class="a" cx="5" cy="5" r="5" transform="translate(48.353 -47.899)"/><circle class="a" cx="5" cy="5" r="5" transform="translate(118.353 -187.899)"/><circle class="a" cx="5" cy="5" r="5" transform="translate(48.353 -187.899)"/></g></svg>