<svg xmlns="http://www.w3.org/2000/svg" xmlns:xlink="http://www.w3.org/1999/xlink" width="1920" height="1080" viewBox="0 0 1920 1080"><defs><style>.a,.e{fill:none;}.b{clip-path:url(#a);}.c{fill:#5579b7;}.d{fill:#7793c6;}.e{stroke:#7793c6;stroke-miterlimit:10;stroke-width:2px;}</style><clipPath id="a"><rect class="a" width="1920" height="1080"/></clipPath></defs><g class="b"><rect class="c" width="1920" height="1080"/><path class="d" d="M1392.64,1073c.52,2.32-1.29,4.56-4.05,5s-5.4-1.1-5.92-3.42,1.3-4.56,4-5,5.41,1.09,5.92,3.41"/><path class="d" d="M1273.91,1063.19c.51,2.32-1.3,4.56-4.05,5s-5.41-1.09-5.93-3.41,1.3-4.56,4-5,5.41,1.1,5.93,3.42"/><path class="d" d="M1062.07,1062.71c.52,2.32-1.3,4.56-4,5s-5.41-1.1-5.92-3.42,1.29-4.56,4.05-5,5.4,1.09,5.92,3.41"/><path class="d" d="M1733.06,1067.52a5.71,5.71,0,0,0,7.1.89,3.85,3.85,0,0,0,1.06-6,5.73,5.73,0,0,0-7.1-.9,3.87,3.87,0,0,0-1.06,6"/><path class="d" d="M420.34,475.63c.52,2.32-1.29,4.55-4,5s-5.4-1.09-5.92-3.42,1.3-4.55,4.05-5,5.41,1.09,5.92,3.42"/><path class="d" d="M296,340.9c.51,2.32-1.3,4.56-4,5s-5.41-1.09-5.92-3.41,1.29-4.56,4-5,5.41,1.1,5.93,3.42"/><path class="d" d="M288,309.2c.51,2.32-1.3,4.56-4.05,5s-5.41-1.09-5.93-3.41,1.3-4.56,4.06-5,5.4,1.1,5.92,3.42"/><path class="d" d="M247.84,250.44c.52,2.32-1.3,4.56-4.05,5s-5.41-1.1-5.92-3.42,1.29-4.56,4-5,5.4,1.09,5.92,3.41"/><path class="d" d="M138.88,101.58c.52,2.32-1.29,4.56-4,5s-5.4-1.09-5.92-3.41,1.3-4.56,4.05-5,5.41,1.1,5.92,3.42"/><path class="d" d="M176.54,53.34c.51,2.32-1.3,4.56-4.06,5s-5.4-1.1-5.92-3.42,1.3-4.56,4.05-5S176,51,176.54,53.34"/><path class="d" d="M83,69.32c.51,2.32-1.3,4.56-4,5s-5.5-1.1-6-3.42,1.3-4.56,4-5,5.44,1.1,6,3.42"/><path class="d" d="M40.15,95.73c.52,2.32-1.3,4.56-4,5s-5.41-1.09-5.92-3.41,1.29-4.56,4-5,5.4,1.1,5.92,3.42"/><path class="d" d="M247.84,68.59c.52,2.32-1.3,4.56-4.05,5s-5.41-1.1-5.92-3.42,1.29-4.56,4-5,5.4,1.09,5.92,3.41"/><path class="d" d="M267.19,14.47c.52,2.32-1.3,4.56-4.05,5s-5.4-1.09-5.92-3.41,1.29-4.56,4-5,5.4,1.1,5.92,3.42"/><path class="d" d="M98.69,127c.52,2.32-1.3,4.55-4,5s-5.41-1.09-5.92-3.42,1.3-4.55,4-5,5.4,1.09,5.92,3.42"/><path class="d" d="M222.24,333.16c.52,2.32-1.29,4.56-4.05,5s-5.4-1.09-5.92-3.41,1.3-4.56,4-5,5.41,1.1,5.92,3.42"/><path class="d" d="M96.52,240c.51,2.33-1.3,4.56-4,5s-5.41-1.09-5.93-3.42,1.3-4.55,4-5S96,237.71,96.52,240"/><path class="d" d="M198.56,518.35c.52,2.32-1.3,4.56-4.05,5s-5.4-1.09-5.92-3.42,1.29-4.55,4-5,5.4,1.09,5.92,3.42"/><path class="d" d="M207.5,566.27c.51,2.32-1.3,4.56-4.05,5s-5.41-1.1-5.93-3.42,1.3-4.56,4.06-5,5.4,1.09,5.92,3.41"/><path class="d" d="M126.52,659.05c.51,2.32-1.3,4.56-4,5s-5.41-1.09-5.92-3.41,1.29-4.56,4-5,5.41,1.09,5.93,3.42"/><path class="d" d="M17.46,660.41c.51,2.32-1.3,4.56-4.05,5S8,664.31,7.49,662s1.29-4.56,4-5,5.41,1.1,5.93,3.42"/><path class="d" d="M529.88,297.22c.51,2.33-1.3,4.56-4.06,5s-5.4-1.09-5.92-3.42,1.3-4.55,4.05-5,5.41,1.09,5.93,3.41"/><path class="d" d="M567.45,237.63c.51,2.33-1.3,4.56-4.05,5s-5.41-1.09-5.93-3.42,1.3-4.55,4-5,5.41,1.09,5.93,3.41"/><path class="d" d="M440.09,297.22c.52,2.33-1.29,4.56-4,5s-5.4-1.09-5.92-3.42,1.3-4.55,4.05-5,5.41,1.09,5.92,3.41"/><path class="d" d="M446.17,182.84c.52,2.33-1.3,4.56-4.05,5s-5.41-1.09-5.92-3.42,1.3-4.55,4.05-5,5.4,1.09,5.92,3.41"/><path class="d" d="M608.81,65c.52,2.32-1.3,4.56-4,5s-5.41-1.1-5.92-3.42,1.29-4.56,4-5,5.4,1.09,5.92,3.41"/><path class="d" d="M726.33,39.43c.52,2.32-1.3,4.56-4.05,5s-5.4-1.09-5.92-3.41,1.29-4.56,4-5,5.4,1.1,5.92,3.42"/><path class="d" d="M775.27,107.52c.52,2.32-1.3,4.56-4,5s-5.4-1.1-5.92-3.42,1.3-4.56,4.05-5,5.4,1.09,5.92,3.41"/><path class="d" d="M516.89,92.22c.51,2.32-1.3,4.56-4,5s-5.41-1.09-5.92-3.42,1.29-4.55,4-5,5.41,1.09,5.93,3.42"/><path class="d" d="M636,353.61c.52,2.32-1.29,4.56-4,5s-5.4-1.09-5.92-3.41,1.3-4.56,4-5,5.41,1.1,5.92,3.42"/><path class="d" d="M701.48,264.22c.51,2.32-1.3,4.55-4.05,5s-5.41-1.09-5.93-3.42,1.3-4.55,4-5,5.41,1.09,5.93,3.42"/><path class="d" d="M660.82,402.38c.51,2.32-1.3,4.56-4.05,5s-5.41-1.09-5.93-3.42,1.3-4.55,4-5,5.41,1.09,5.93,3.42"/><path class="d" d="M655.49,484.28c.52,2.32-1.3,4.56-4,5s-5.41-1.09-5.92-3.41,1.3-4.56,4.05-5,5.4,1.09,5.92,3.42"/><path class="d" d="M527,581.84c.52,2.32-1.3,4.56-4.05,5s-5.41-1.09-5.92-3.42,1.29-4.56,4-5,5.4,1.09,5.92,3.41"/><path class="d" d="M388.68,528.8c.51,2.33-1.3,4.56-4.05,5s-5.41-1.1-5.93-3.42,1.3-4.56,4.05-5,5.41,1.09,5.93,3.41"/><path class="d" d="M322.72,577.56c.52,2.33-1.29,4.56-4.05,5s-5.4-1.09-5.92-3.42,1.3-4.56,4.05-5,5.41,1.09,5.92,3.41"/><path class="d" d="M332.71,654.77c.52,2.32-1.29,4.56-4,5s-5.4-1.09-5.92-3.41,1.3-4.56,4.05-5,5.41,1.09,5.92,3.42"/><path class="d" d="M600.19,378.8c.52,2.32-1.3,4.56-4.05,5s-5.4-1.1-5.92-3.42,1.29-4.56,4-5,5.4,1.09,5.92,3.41"/><path class="d" d="M710.22,385.68c.51,2.32-1.3,4.56-4.05,5s-5.41-1.1-5.92-3.42,1.29-4.56,4-5,5.41,1.09,5.93,3.41"/><path class="d" d="M792.94,393.16c.52,2.32-1.29,4.56-4.05,5s-5.41-1.09-5.92-3.41,1.3-4.56,4-5,5.4,1.1,5.92,3.42"/><path class="d" d="M877.32,313c.51,2.32-1.3,4.55-4.06,5s-5.4-1.09-5.92-3.42,1.3-4.55,4-5,5.41,1.09,5.93,3.42"/><path class="d" d="M900,393.16c.52,2.32-1.29,4.56-4,5s-5.4-1.09-5.92-3.41,1.3-4.56,4.05-5,5.41,1.1,5.92,3.42"/><path class="d" d="M899.26,593.78c.51,2.32-1.3,4.56-4,5s-5.41-1.09-5.93-3.42,1.3-4.55,4.05-5,5.41,1.09,5.93,3.42"/><path class="d" d="M888.44,656c.51,2.33-1.3,4.56-4.05,5s-5.41-1.09-5.92-3.42,1.29-4.56,4-5,5.41,1.09,5.93,3.41"/><path class="d" d="M701.32,591.32c.52,2.32-1.3,4.56-4.05,5s-5.41-1.09-5.92-3.41,1.29-4.56,4-5,5.4,1.09,5.92,3.42"/><path class="d" d="M949.91,427.36c.52,2.33-1.3,4.56-4,5s-5.41-1.09-5.92-3.42,1.29-4.56,4-5,5.4,1.09,5.92,3.41"/><path class="d" d="M1023.42,395.25c.52,2.33-1.3,4.56-4,5s-5.41-1.09-5.92-3.42,1.29-4.56,4-5,5.4,1.09,5.92,3.41"/><path class="d" d="M933.25,259.92c.51,2.32-1.3,4.56-4,5s-5.41-1.1-5.93-3.42,1.3-4.56,4.05-5,5.41,1.09,5.93,3.41"/><path class="d" d="M928.17,194.72c.52,2.32-1.29,4.56-4,5s-5.4-1.1-5.92-3.42,1.3-4.56,4-5,5.41,1.09,5.92,3.41"/><path class="d" d="M989,267.43c.52,2.32-1.3,4.56-4,5s-5.4-1.09-5.92-3.41,1.3-4.56,4.05-5,5.4,1.1,5.92,3.42"/><path class="d" d="M987.51,210.28c.52,2.32-1.29,4.56-4,5s-5.4-1.09-5.92-3.41,1.3-4.56,4.05-5,5.4,1.1,5.92,3.42"/><path class="d" d="M1024.71,168.9c.52,2.32-1.29,4.56-4.05,5s-5.4-1.1-5.92-3.42,1.3-4.56,4-5,5.41,1.1,5.92,3.42"/><path class="d" d="M1000.23,104.48c.52,2.32-1.29,4.56-4.05,5s-5.4-1.1-5.92-3.42,1.3-4.56,4-5,5.41,1.09,5.92,3.41"/><path class="d" d="M1075.42,81.15c.52,2.32-1.3,4.56-4.05,5s-5.41-1.09-5.92-3.41,1.29-4.56,4-5,5.4,1.09,5.92,3.42"/><path class="d" d="M1166.1,44c.51,2.32-1.3,4.56-4,5s-5.41-1.1-5.93-3.42,1.3-4.56,4.05-5,5.41,1.09,5.93,3.41"/><path class="d" d="M1010.32,30.41c.52,2.32-1.29,4.56-4.05,5s-5.4-1.09-5.92-3.41,1.3-4.56,4-5,5.41,1.1,5.92,3.42"/><path class="d" d="M1067.89,25.94c.51,2.32-1.3,4.56-4.05,5s-5.41-1.09-5.93-3.41,1.3-4.56,4-5,5.41,1.1,5.93,3.42"/><path class="d" d="M728.36,518.35c.52,2.32-1.3,4.56-4.05,5s-5.4-1.09-5.92-3.42,1.29-4.55,4.05-5,5.4,1.09,5.92,3.42"/><path class="d" d="M452.17,839c.52,2.33-1.29,4.56-4.05,5s-5.4-1.09-5.92-3.42,1.3-4.55,4.05-5,5.41,1.09,5.92,3.41"/><path class="d" d="M618.8,832.65c.51,2.32-1.3,4.56-4,5s-5.41-1.09-5.93-3.41,1.3-4.56,4-5,5.41,1.1,5.93,3.42"/><path class="d" d="M708.63,912.48c.52,2.32-1.29,4.56-4,5s-5.4-1.09-5.92-3.41,1.3-4.56,4.05-5,5.41,1.1,5.92,3.42"/><path class="d" d="M657.21,1080.25c.52,2.32-1.3,4.56-4.05,5s-5.41-1.09-5.92-3.42,1.3-4.55,4-5,5.4,1.09,5.92,3.42"/><path class="d" d="M444,989.1c.51,2.32-1.3,4.56-4,5s-5.41-1.09-5.93-3.41,1.3-4.56,4.05-5,5.41,1.1,5.93,3.42"/><path class="d" d="M733.1,832.65c.52,2.32-1.3,4.56-4.05,5s-5.41-1.09-5.92-3.41,1.29-4.56,4-5,5.4,1.1,5.92,3.42"/><path class="d" d="M936.16,852c.52,2.33-1.29,4.56-4,5s-5.4-1.09-5.92-3.42,1.3-4.56,4-5,5.41,1.09,5.92,3.41"/><path class="d" d="M933.16,716.61c.51,2.33-1.3,4.56-4,5s-5.41-1.09-5.92-3.42,1.29-4.56,4-5,5.4,1.09,5.92,3.41"/><path class="d" d="M1042.86,866.76c.51,2.32-1.3,4.56-4.06,5s-5.4-1.09-5.92-3.41,1.3-4.56,4-5,5.41,1.1,5.93,3.42"/><path class="d" d="M944.84,916.76c.51,2.32-1.3,4.56-4.05,5s-5.41-1.09-5.93-3.41,1.3-4.56,4-5,5.41,1.1,5.93,3.42"/><path class="d" d="M1012.15,967.53c.52,2.32-1.29,4.56-4,5s-5.4-1.09-5.92-3.41,1.3-4.56,4.05-5,5.4,1.1,5.92,3.42"/><path class="d" d="M939.58,1026c.52,2.33-1.29,4.56-4,5s-5.41-1.1-5.93-3.42,1.3-4.56,4-5,5.41,1.09,5.92,3.41"/><path class="d" d="M816.49,883.8c.52,2.32-1.29,4.56-4,5s-5.4-1.1-5.92-3.42,1.3-4.56,4.05-5,5.41,1.09,5.92,3.41"/><path class="d" d="M357.61,950.29c.52,2.32-1.3,4.55-4.05,5s-5.41-1.09-5.92-3.42,1.29-4.55,4.05-5,5.4,1.09,5.92,3.42"/><path class="d" d="M357.61,862.48c.52,2.32-1.3,4.56-4.05,5s-5.41-1.09-5.92-3.41,1.29-4.56,4.05-5,5.4,1.1,5.92,3.42"/><path class="d" d="M126.52,879.9c.51,2.33-1.3,4.56-4,5s-5.41-1.09-5.92-3.42,1.29-4.56,4-5,5.41,1.09,5.93,3.41"/><path class="d" d="M127.74,1006.23c.52,2.32-1.29,4.55-4,5s-5.4-1.09-5.92-3.42,1.3-4.55,4-5,5.41,1.09,5.92,3.42"/><path class="d" d="M420.34,762.66c.52,2.33-1.29,4.56-4,5s-5.4-1.09-5.92-3.42,1.3-4.56,4.05-5,5.41,1.09,5.92,3.41"/><path class="d" d="M506.72,704.34c.51,2.32-1.3,4.56-4.05,5s-5.41-1.09-5.92-3.41,1.29-4.56,4.05-5,5.4,1.09,5.92,3.42"/><path class="d" d="M237,659.05c.52,2.32-1.3,4.56-4.05,5s-5.41-1.09-5.92-3.41,1.29-4.56,4-5,5.4,1.09,5.92,3.42"/><path class="d" d="M327.8,792.32c.51,2.32-1.3,4.56-4.05,5s-5.41-1.1-5.93-3.42,1.3-4.56,4.06-5,5.4,1.1,5.92,3.42"/><path class="d" d="M1654.69,447.41a5.71,5.71,0,0,0,7.1.89,3.85,3.85,0,0,0,1.06-6,5.71,5.71,0,0,0-7.09-.9,3.87,3.87,0,0,0-1.07,6"/><path class="d" d="M1548.07,401.76a5.71,5.71,0,0,0,7.1.89,3.85,3.85,0,0,0,1.06-6,5.71,5.71,0,0,0-7.1-.89,3.85,3.85,0,0,0-1.06,6"/><path class="d" d="M1526,320.65a5.7,5.7,0,0,0,7.09.89,3.85,3.85,0,0,0,1.06-6,5.71,5.71,0,0,0-7.09-.9,3.86,3.86,0,0,0-1.06,6"/><path class="d" d="M1625.1,186.9a5.73,5.73,0,0,0,7.1.9,3.86,3.86,0,0,0,1.06-6,5.71,5.71,0,0,0-7.1-.89,3.86,3.86,0,0,0-1.06,6"/><path class="d" d="M1523.46,73.84a5.71,5.71,0,0,0,7.1.89,3.86,3.86,0,0,0,1.06-6,5.73,5.73,0,0,0-7.1-.9,3.86,3.86,0,0,0-1.06,6"/><path class="d" d="M1871.4,65.09a5.71,5.71,0,0,0,7.1.89,3.85,3.85,0,0,0,1.06-6,5.71,5.71,0,0,0-7.09-.9,3.87,3.87,0,0,0-1.07,6"/><path class="d" d="M1581.39,22.1a5.7,5.7,0,0,0,7.09.89,3.85,3.85,0,0,0,1.06-6,5.71,5.71,0,0,0-7.09-.9,3.86,3.86,0,0,0-1.06,6"/><path class="d" d="M1688.86,201.74a5.7,5.7,0,0,0,7.09.89,3.86,3.86,0,0,0,1.07-6,5.73,5.73,0,0,0-7.1-.9,3.86,3.86,0,0,0-1.06,6"/><path class="d" d="M1844.85,266.52a5.71,5.71,0,0,0,7.1.89,3.85,3.85,0,0,0,1.06-6,5.73,5.73,0,0,0-7.1-.9,3.86,3.86,0,0,0-1.06,6"/><path class="d" d="M1526.67,224.92a5.7,5.7,0,0,0,7.09.89,3.85,3.85,0,0,0,1.06-6,5.71,5.71,0,0,0-7.09-.9,3.86,3.86,0,0,0-1.06,6"/><path class="d" d="M1432.92,332.47a5.71,5.71,0,0,0,7.1.89,3.85,3.85,0,0,0,1.06-6,5.71,5.71,0,0,0-7.09-.9,3.87,3.87,0,0,0-1.07,6"/><path class="d" d="M1357.78,378.16a5.71,5.71,0,0,0,7.1.89,3.86,3.86,0,0,0,1.06-6,5.73,5.73,0,0,0-7.1-.9,3.86,3.86,0,0,0-1.06,6"/><path class="d" d="M1222,332.47a5.7,5.7,0,0,0,7.09.89,3.85,3.85,0,0,0,1.06-6,5.71,5.71,0,0,0-7.09-.9,3.86,3.86,0,0,0-1.06,6"/><path class="d" d="M1157,242.89a5.73,5.73,0,0,0,7.1.9,3.86,3.86,0,0,0,1.06-6,5.71,5.71,0,0,0-7.1-.89,3.85,3.85,0,0,0-1.06,6"/><path class="d" d="M1269.92,186.18a5.7,5.7,0,0,0,7.09.89,3.85,3.85,0,0,0,1.06-6,5.71,5.71,0,0,0-7.09-.9,3.86,3.86,0,0,0-1.06,6"/><path class="d" d="M1162.27,175.69a5.71,5.71,0,0,0,7.1.89,3.85,3.85,0,0,0,1.06-6,5.71,5.71,0,0,0-7.09-.9,3.87,3.87,0,0,0-1.07,6"/><path class="d" d="M1205.72,483.24a5.7,5.7,0,0,0,7.09.89,3.86,3.86,0,0,0,1.07-6,5.73,5.73,0,0,0-7.1-.9,3.86,3.86,0,0,0-1.06,6"/><path class="d" d="M1138.56,515.54a5.71,5.71,0,0,0,7.09.9,3.86,3.86,0,0,0,1.06-6,5.7,5.7,0,0,0-7.09-.89,3.85,3.85,0,0,0-1.06,6"/><path class="d" d="M1138.56,549.08a5.7,5.7,0,0,0,7.09.89,3.85,3.85,0,0,0,1.06-6,5.71,5.71,0,0,0-7.09-.9,3.86,3.86,0,0,0-1.06,6"/><path class="d" d="M1125.35,738.83a5.71,5.71,0,0,0,7.1.89,3.85,3.85,0,0,0,1.06-6,5.71,5.71,0,0,0-7.09-.9,3.87,3.87,0,0,0-1.07,6"/><path class="d" d="M1120.28,831.7a5.73,5.73,0,0,0,7.1.9,3.87,3.87,0,0,0,1.06-6,5.71,5.71,0,0,0-7.1-.89,3.85,3.85,0,0,0-1.06,6"/><path class="d" d="M1332.22,536.42a5.71,5.71,0,0,0,7.1.89,3.85,3.85,0,0,0,1.06-6,5.73,5.73,0,0,0-7.1-.9,3.87,3.87,0,0,0-1.06,6"/><path class="d" d="M1429.9,576.62a5.71,5.71,0,0,0,7.1.89,3.85,3.85,0,0,0,1.06-6,5.73,5.73,0,0,0-7.1-.9,3.86,3.86,0,0,0-1.06,6"/><path class="d" d="M1630.5,534.91a5.71,5.71,0,0,0,7.09.9,3.86,3.86,0,0,0,1.06-6,5.7,5.7,0,0,0-7.09-.89,3.85,3.85,0,0,0-1.06,6"/><path class="d" d="M1592.31,782.43a5.71,5.71,0,0,0,7.09.9,3.86,3.86,0,0,0,1.06-6,5.71,5.71,0,0,0-7.09-.9,3.86,3.86,0,0,0-1.06,6"/><path class="d" d="M1797,647.45a5.71,5.71,0,0,0,7.1.89,3.85,3.85,0,0,0,1.06-6,5.71,5.71,0,0,0-7.09-.9,3.87,3.87,0,0,0-1.07,6"/><path class="d" d="M1860.32,705.93a5.7,5.7,0,0,0,7.09.89,3.85,3.85,0,0,0,1.06-6,5.71,5.71,0,0,0-7.09-.9,3.86,3.86,0,0,0-1.06,6"/><path class="d" d="M1842.85,613a5.73,5.73,0,0,0,7.1.9,3.86,3.86,0,0,0,1.06-6,5.7,5.7,0,0,0-7.09-.89,3.86,3.86,0,0,0-1.07,6"/><path class="d" d="M1612.91,867.49a5.73,5.73,0,0,0,7.1.9,3.86,3.86,0,0,0,1.06-6,5.71,5.71,0,0,0-7.1-.89,3.86,3.86,0,0,0-1.06,6"/><path class="d" d="M1645.94,925a5.71,5.71,0,0,0,7.1.89,3.85,3.85,0,0,0,1.06-6,5.71,5.71,0,0,0-7.09-.9,3.87,3.87,0,0,0-1.07,6"/><path class="d" d="M1729.41,931.54a5.73,5.73,0,0,0,7.1.9,3.86,3.86,0,0,0,1.06-6,5.71,5.71,0,0,0-7.1-.89,3.85,3.85,0,0,0-1.06,6"/><path class="d" d="M1913.91,841.27a5.71,5.71,0,0,0,7.1.89,3.86,3.86,0,0,0,1.06-6,5.73,5.73,0,0,0-7.1-.9,3.86,3.86,0,0,0-1.06,6"/><path class="d" d="M1654.21,1010.63a5.73,5.73,0,0,0,7.1.9,3.87,3.87,0,0,0,1.06-6,5.71,5.71,0,0,0-7.1-.89,3.85,3.85,0,0,0-1.06,6"/><path class="d" d="M1593.14,957.73a5.71,5.71,0,0,0,7.1.89,3.85,3.85,0,0,0,1.06-6,5.73,5.73,0,0,0-7.1-.9,3.87,3.87,0,0,0-1.06,6"/><path class="d" d="M1357.37,479.62a5.73,5.73,0,0,0,7.1.9,3.86,3.86,0,0,0,1.06-6,5.71,5.71,0,0,0-7.1-.89,3.86,3.86,0,0,0-1.06,6"/><path class="d" d="M1266.49,526a5.73,5.73,0,0,0,7.1.9,3.87,3.87,0,0,0,1.06-6,5.73,5.73,0,0,0-7.1-.9,3.86,3.86,0,0,0-1.06,6"/><path class="d" d="M1300.08,572.19a5.71,5.71,0,0,0,7.09.9,3.86,3.86,0,0,0,1.06-6,5.7,5.7,0,0,0-7.09-.89,3.85,3.85,0,0,0-1.06,6"/><path class="d" d="M1315.71,874.4a5.71,5.71,0,0,0,7.1.89,3.85,3.85,0,0,0,1.06-6,5.73,5.73,0,0,0-7.1-.9,3.87,3.87,0,0,0-1.06,6"/><path class="d" d="M1429.9,643.17a5.71,5.71,0,0,0,7.1.89,3.85,3.85,0,0,0,1.06-6,5.73,5.73,0,0,0-7.1-.9,3.86,3.86,0,0,0-1.06,6"/><path class="d" d="M1446.75,859.3a5.7,5.7,0,0,0,7.09.89,3.85,3.85,0,0,0,1.06-6,5.71,5.71,0,0,0-7.09-.9,3.86,3.86,0,0,0-1.06,6"/><path class="d" d="M1529.69,902.76a5.71,5.71,0,0,0,7.1.89,3.86,3.86,0,0,0,1.06-6,5.73,5.73,0,0,0-7.1-.9,3.86,3.86,0,0,0-1.06,6"/><path class="d" d="M1749.86,488.15a5.73,5.73,0,0,0,7.1.9,3.86,3.86,0,0,0,1.06-6,5.71,5.71,0,0,0-7.1-.89,3.86,3.86,0,0,0-1.06,6"/><path class="d" d="M1889.38,451.69a5.71,5.71,0,0,0,7.1.89,3.86,3.86,0,0,0,1.06-6,5.73,5.73,0,0,0-7.1-.9,3.86,3.86,0,0,0-1.06,6"/><path class="d" d="M-5.84,841.27a5.71,5.71,0,0,0,7.1.89,3.86,3.86,0,0,0,2-2.741,3.86,3.86,0,0,0-.937-3.259,5.73,5.73,0,0,0-7.1-.9,3.86,3.86,0,0,0-2,2.741,3.86,3.86,0,0,0,.937,3.259"/><path class="d" d="M657.21.84c.52,2.32-1.3,4.56-4.05,5s-5.41-1.09-5.92-3.41,1.3-4.56,4-5,5.4,1.1,5.92,3.42"/><path class="e" d="M1848.84,263.79l162.44-22.97,125.73,93.13L1894.47,449.03Z"/><path class="e" d="M2151.75,659.25H2041.28l-124.3,179.14,325.58-45.87Z"/><line class="e" x2="124.3" y2="41.71" transform="translate(1916.98 838.98)"/><line class="e" x1="125.53" y1="168.04" transform="translate(1916.98 838.98)"/><line class="e" x2="218.85" y2="70.11" transform="translate(1894.47 449.03)"/><line class="e" x1="146.81" y1="210.81" transform="translate(1894.47 449.03)"/><line class="e" x1="106.07" y2="167.27" transform="translate(1848.84 96.52)"/><line class="e" x2="85.78" y2="51.25" transform="translate(1847.6 611.31)"/><path class="e" d="M291.04,341.69,193.57,519.13l8.94,47.93,180.55-38.4Z"/><path class="e" d="M-70.91,263.79,91.53,240.82l125.73,93.13L-25.28,449.03Z"/><path class="e" d="M435.11,297.44h89.78l70.31,81.58L415.36,475.84Z"/><path class="e" d="M894.86,393.65H787.81L723.23,518.84l170.9,75.43Z"/><path class="e" d="M927.87,717.4l1.17,134.57L727.81,833.44,883.14,656.76Z"/><path class="e" d="M441.75,183.63,283.57,309.99l-40.16-58.76V69.38Z"/><path class="e" d="M352.78,951.08l-90.36,143.61-139.51-87.68-1.22-126.32Z"/><path class="e" d="M631.06,354.4l74.17,32.07,167.1-72.65L696.49,265.01Z"/><path class="e" d="M521.98,582.63,650.5,485.07l45.83,107.04L501.73,705.13Z"/><path class="e" d="M232,659.25H121.53L-2.77,838.39l325.58-45.87Z"/><path class="e" d="M604.13,65.43,511.9,93.01l50.56,145.42L770.28,108.31Z"/><path class="e" d="M77.97,70.11,35.16,96.52l56.91,30.93,41.83-25.08Z"/><line class="e" x2="138.92" y2="53.97" transform="translate(383.06 528.66)"/><line class="e" x1="267.45" y2="43.59" transform="translate(383.06 485.07)"/><line class="e" x1="118.67" y1="176.47" transform="translate(383.06 528.66)"/><line class="e" x2="125.22" y2="88.5" transform="translate(202.51 567.06)"/><line class="e" x2="9.99" y2="77.21" transform="translate(317.74 578.35)"/><line class="e" x1="87.63" y1="107.89" transform="translate(327.73 655.56)"/><line class="e" y1="4.28" x2="95.73" transform="translate(232 655.56)"/><line class="e" y1="137.55" x2="4.92" transform="translate(322.81 655.56)"/><line class="e" x1="92.55" y2="29.66" transform="translate(322.81 763.45)"/><line class="e" y1="92.78" x2="80.98" transform="translate(121.53 567.06)"/><line class="e" x1="29.49" y1="92.78" transform="translate(202.51 567.06)"/><line class="e" y1="52.24" x2="32.3" transform="translate(383.06 476.42)"/><line class="e" x2="124.32" y2="134.73" transform="translate(291.04 341.69)"/><line class="e" x1="144.07" y2="43.68" transform="translate(291.04 298.01)"/><line class="e" x1="212.14" y2="149.07" transform="translate(383.06 379.59)"/><line class="e" x1="55.31" y1="105.48" transform="translate(595.2 379.59)"/><line class="e" x2="31.78" y2="241.33" transform="translate(696.33 592.11)"/><line class="e" x1="187.12" y1="64.65" transform="translate(696.33 592.11)"/><line class="e" x2="226.38" y2="128.31" transform="translate(501.73 705.13)"/><line class="e" y1="80.8" x2="4.62" transform="translate(650.51 404.27)"/><line class="e" x1="132.83" y2="10.32" transform="translate(655.13 393.95)"/><line class="e" y1="28.07" x2="40.84" transform="translate(590.22 354.4)"/><line class="e" x1="50.1" y2="17.8" transform="translate(655.13 386.47)"/><line class="e" x2="59.93" y2="24.68" transform="translate(595.2 379.59)"/><line class="e" x2="82.72" y2="7.48" transform="translate(705.23 386.47)"/><line class="e" x1="84.37" y2="80.13" transform="translate(787.96 313.82)"/><line class="e" x1="22.68" y1="80.13" transform="translate(872.33 313.82)"/><line class="e" x2="68.24" y2="114.87" transform="translate(655.13 404.27)"/><line class="e" x2="72.86" y2="34.07" transform="translate(650.51 485.07)"/><line class="e" y1="72.97" x2="27.04" transform="translate(696.33 519.14)"/><line class="e" x1="160.08" y1="137.62" transform="translate(723.37 519.14)"/><line class="e" x1="10.82" y2="62.19" transform="translate(883.45 594.57)"/><line class="e" x1="50.65" y2="166.42" transform="translate(894.27 428.15)"/><line class="e" x1="24.07" y1="49.87" transform="translate(631.06 354.4)"/><line class="e" x2="68.6" y2="115.98" transform="translate(562.46 238.42)"/><line class="e" y1="59.59" x2="37.57" transform="translate(524.89 238.42)"/><line class="e" x1="106.17" y1="56.39" transform="translate(524.89 298.01)"/><line class="e" x1="134.03" y1="26.58" transform="translate(562.46 238.43)"/><line class="e" x1="73.79" y2="156.7" transform="translate(696.49 108.31)"/><line class="e" x1="102.05" y1="205.51" transform="translate(770.28 108.31)"/><line class="e" y1="205" x2="76.79" transform="translate(435.11 93.01)"/><line class="e" x1="127.35" y2="59.59" transform="translate(435.11 238.42)"/><path class="e" d="M1530.03,318.11l162.91-118.92,155.99,64.78L1658.77,444.86Z"/><path class="e" d="M1124.36,829.16l-85.68,40.04-31.52,99.12,294.46-61.88Z"/><path class="e" d="M1737.47-15.94,1586.95,18.23l42.23,166.13,246.3-121.81Z"/><path class="e" d="M1436.82,329.93l-75.15,45.68-.4,101.47,190.7-77.87Z"/><path class="e" d="M1130.4,735.75l173.75-166.1,129.83,70.97L1319.79,871.85Z"/><path class="e" d="M1533.77,900.22l63.45,54.96,19.77-90.23-166.16-8.2Z"/><path class="e" d="M1273.99,183.63l256.75,38.74-3.2-151.08L1166.35,173.14Z"/><path class="e" d="M1210.32,480.69l60.78,42.72-127.94,23.12V513Z"/><path class="e" d="M928.26,260.71l-5.07-65.2,96.54-25.82-37.21,41.38Z"/><path class="e" d="M1634.76,531.86l-200.78,42.21,162.4,205.81,204.7-134.98Z"/><path class="e" d="M932.6,1028.44l7.25-110.89L811.51,884.59,652.22,1081.04Z"/><path class="e" d="M984.01,268.22l177.1-27.87,64.96,89.58-207.64,66.11Z"/><path class="e" d="M447.19,839.82l166.62-6.38,89.84,79.83L437.27,989.13Z"/><path class="e" d="M1916.92,838.98,1733.49,929l-83.47-6.56L1864.4,703.38Z"/><line class="e" x1="24.01" y2="87" transform="translate(1634.76 444.86)"/><line class="e" y1="129.21" x2="224.79" transform="translate(1433.98 444.86)"/><line class="e" x1="142.31" y1="200.04" transform="translate(1658.77 444.86)"/><line class="e" x1="94.99" y2="221.64" transform="translate(1753.94 263.97)"/><line class="e" x2="95.17" y2="40.75" transform="translate(1658.77 444.86)"/><line class="e" x1="47.14" y1="159.29" transform="translate(1753.94 485.61)"/><line class="e" x1="92.99" y1="124.85" transform="translate(1753.94 485.61)"/><line class="e" y1="34.44" x2="45.85" transform="translate(1801.08 610.46)"/><line class="e" x1="106.62" y1="45.64" transform="translate(1552.15 399.22)"/><line class="e" x2="22.12" y2="81.12" transform="translate(1530.03 318.1)"/><line class="e" y1="11.82" x2="93.02" transform="translate(1437 318.1)"/><line class="e" y1="32.22" x2="297.32" transform="translate(1361.45 444.86)"/><line class="e" x1="72.53" y1="96.99" transform="translate(1361.45 477.08)"/><line class="e" x2="20.6" y2="85.06" transform="translate(1596.39 779.89)"/><line class="e" y1="76.86" x2="145.56" transform="translate(1450.83 779.89)"/><line class="e" x1="184.09" y2="220.05" transform="translate(1616.99 644.9)"/><line class="e" x1="96.24" y1="39.88" transform="translate(1337.74 534.19)"/><line class="e" y1="35.46" x2="33.59" transform="translate(1304.15 534.19)"/><line class="e" x1="151.65" y2="3.61" transform="translate(1209.8 477.08)"/><line class="e" x2="67.17" y2="10.77" transform="translate(1270.57 523.42)"/><line class="e" x1="23.71" y2="57.11" transform="translate(1337.74 477.08)"/><line class="e" x2="33.58" y2="46.23" transform="translate(1270.57 523.42)"/><line class="e" x2="161.52" y2="23.12" transform="translate(1142.63 546.53)"/><line class="e" y1="189.22" x2="12.24" transform="translate(1130.4 546.53)"/><line class="e" x2="96.24" y2="106.43" transform="translate(1337.74 534.19)"/><line class="e" y2="66.4" transform="translate(1433.97 574.55)"/><line class="e" x1="162.41" y1="139.27" transform="translate(1433.98 640.62)"/><line class="e" x1="16.85" y1="216.13" transform="translate(1433.98 640.62)"/><line class="e" y1="15.1" x2="131.03" transform="translate(1319.79 856.75)"/><line class="e" x2="195.43" y2="42.69" transform="translate(1124.36 829.16)"/><line class="e" x1="6.04" y2="93.41" transform="translate(1124.36 735.75)"/><line class="e" x1="127.94" y1="53.5" transform="translate(1209.8 480.69)"/><line class="e" x1="16.27" y2="150.77" transform="translate(1209.8 329.92)"/><line class="e" x1="135.79" y1="45.68" transform="translate(1226.07 329.93)"/><line class="e" y1="105.08" x2="152.06" transform="translate(1209.8 375.61)"/><line class="e" y1="183.08" x2="83.44" transform="translate(1142.63 329.92)"/><line class="e" x2="124.21" y2="116.96" transform="translate(1018.43 396.04)"/><line class="e" x1="124.2" y1="150.49" transform="translate(1018.43 396.04)"/><line class="e" x1="275.89" y1="89.57" transform="translate(1161.11 240.35)"/><line class="e" x2="210.47" transform="translate(1225.91 329.96)"/><line class="e" x2="124.38" y2="46.71" transform="translate(322.81 793.11)"/><line class="e" x2="31.83" y2="76.37" transform="translate(415.36 763.45)"/><line class="e" x2="114.07" transform="translate(613.76 834.05)"/><line class="e" x2="198.45" y2="69.99" transform="translate(415.36 763.45)"/><line class="e" y1="58.32" x2="86.37" transform="translate(415.36 705.13)"/><line class="e" x1="112.08" y1="128.31" transform="translate(501.73 705.13)"/><line class="e" x2="29.81" y2="70.16" transform="translate(322.81 793.11)"/><line class="e" x1="94.57" y2="23.45" transform="translate(352.62 839.82)"/><line class="e" y1="17.42" x2="231.09" transform="translate(121.53 863.27)"/><line class="e" y1="88.08" transform="translate(352.67 863.19)"/><line class="e" x1="201.28" y2="87.58" transform="translate(121.53 793.11)"/><line class="e" x2="124.3" y2="41.71" transform="translate(-2.77 838.98)"/><line class="e" x1="125.53" y1="168.04" transform="translate(-2.77 838.98)"/><line class="e" x2="84.65" y2="38.05" transform="translate(352.62 951.08)"/><line class="e" x1="94.57" y2="111.26" transform="translate(352.62 839.82)"/><line class="e" y1="79.83" x2="24.46" transform="translate(703.65 833.44)"/><line class="e" y1="32.62" x2="117.84" transform="translate(811.51 851.97)"/><line class="e" y1="28.68" x2="107.86" transform="translate(703.65 884.59)"/><line class="e" x2="83.4" y2="51.15" transform="translate(728.11 833.44)"/><line class="e" x1="10.5" y1="65.58" transform="translate(929.35 851.97)"/><line class="e" x1="109.33" y1="17.23" transform="translate(929.35 851.97)"/><line class="e" y1="48.35" x2="98.83" transform="translate(939.85 869.2)"/><line class="e" x2="110.51" y2="151.8" transform="translate(928.17 717.4)"/><line class="e" x2="196.19" y2="111.76" transform="translate(928.17 717.4)"/><line class="e" x1="202.23" y1="18.35" transform="translate(928.17 717.4)"/><line class="e" x2="246.95" y2="78.99" transform="translate(883.45 656.76)"/><line class="e" x1="248.36" y2="48.04" transform="translate(894.27 546.53)"/><line class="e" x2="197.71" y2="118.38" transform="translate(944.92 428.15)"/><line class="e" x1="18.17" y2="34.59" transform="translate(1301.62 871.85)"/><line class="e" x1="149.21" y2="49.69" transform="translate(1301.62 856.75)"/><line class="e" x1="232.15" y2="6.23" transform="translate(1301.62 900.21)"/><line class="e" x2="67.32" y2="50.77" transform="translate(939.85 917.55)"/><line class="e" y1="60.13" x2="74.56" transform="translate(932.6 968.32)"/><line class="e" x2="214.95" y2="91.91" transform="translate(437.27 989.13)"/><line class="e" x1="51.43" y2="167.77" transform="translate(652.22 913.27)"/><line class="e" y1="105.56" x2="175.01" transform="translate(262.26 989.13)"/><line class="e" y1="185.19" x2="23.69" transform="translate(193.57 333.95)"/><line class="e" x1="73.78" y1="7.74" transform="translate(217.26 333.95)"/><line class="e" x2="8.03" y2="31.7" transform="translate(283.01 309.99)"/><line class="e" x1="152.1" y2="11.98" transform="translate(283.01 298.01)"/><line class="e" y1="90.62" x2="70.72" transform="translate(441.18 93.01)"/><line class="e" y1="114.38" x2="6.07" transform="translate(435.11 183.63)"/><line class="e" y1="23.96" x2="65.75" transform="translate(217.26 309.99)"/><line class="e" x2="151.32" y2="10.41" transform="translate(91.53 240.82)"/><line class="e" y1="82.72" x2="25.59" transform="translate(217.26 251.23)"/><line class="e" x2="269.05" y2="23.63" transform="translate(242.85 69.38)"/><line class="e" x1="73.51" y2="32.11" transform="translate(944.92 396.04)"/><line class="e" x2="123.42" y2="2.09" transform="translate(895.01 393.95)"/><line class="e" y1="45.6" x2="111.68" transform="translate(872.33 268.22)"/><line class="e" x2="1.49" y2="57.15" transform="translate(982.53 211.07)"/><line class="e" x2="55.76" y2="7.51" transform="translate(928.26 260.71)"/><line class="e" y1="53.11" x2="55.93" transform="translate(872.33 260.71)"/><line class="e" x2="152.91" y2="87.2" transform="translate(770.28 108.31)"/><line class="e" x1="178.58" y1="29.28" transform="translate(982.53 211.07)"/><line class="e" x1="93.74" y2="107.55" transform="translate(1437 222.37)"/><line class="e" x1="112.88" y2="56.72" transform="translate(1161.11 183.63)"/><line class="e" x1="163.01" y1="146.29" transform="translate(1273.99 183.63)"/><line class="e" y1="96.21" x2="0.71" transform="translate(1530.38 222.23)"/><line class="e" x1="99.15" y2="133.74" transform="translate(1530.03 184.36)"/><line class="e" y1="38.01" x2="98.44" transform="translate(1530.74 184.36)"/><line class="e" x1="59.41" y2="53.06" transform="translate(1527.54 18.23)"/><line class="e" x1="101.64" y1="113.07" transform="translate(1527.54 71.29)"/><line class="e" x1="63.32" y1="58.48" transform="translate(1801.08 644.9)"/><line class="e" y1="161.57" x2="247.41" transform="translate(1616.99 703.38)"/><line class="e" x1="33.03" y1="57.49" transform="translate(1616.99 864.95)"/><line class="e" y1="32.74" x2="52.8" transform="translate(1597.22 922.44)"/><line class="e" x2="17.47" y2="92.92" transform="translate(1846.93 610.46)"/><line class="e" x1="63.76" y1="14.83" transform="translate(1629.18 184.36)"/><line class="e" y1="201.43" x2="26.55" transform="translate(1848.93 62.54)"/><line class="e" y1="49.69" x2="65.32" transform="translate(317.74 528.66)"/><line class="e" x1="55.33" y2="126.9" transform="translate(327.73 528.66)"/><line class="e" x2="115.23" y2="11.29" transform="translate(202.51 567.06)"/><line class="e" x2="218.85" y2="70.11" transform="translate(-25.28 449.03)"/><line class="e" x1="146.81" y1="210.81" transform="translate(-25.28 449.03)"/><line class="e" x2="146.62" y2="3.45" transform="translate(1019.73 169.69)"/><line class="e" y1="67.21" x2="5.24" transform="translate(1161.11 173.14)"/><line class="e" x1="139.88" y1="76.95" transform="translate(1387.66 -5.66)"/><line class="e" x1="5.24" y1="128.38" transform="translate(1161.11 44.76)"/><line class="e" x1="226.55" y2="50.42" transform="translate(1161.11 -5.66)"/><line class="e" x2="249.45" y2="61.38" transform="translate(770.28 108.31)"/><line class="e" x1="108.95" y1="148.86" transform="translate(133.9 102.37)"/><line class="e" y1="138.45" x2="42.37" transform="translate(91.53 102.37)"/><line class="e" x1="0.53" y2="113.82" transform="translate(91.85 127.38)"/><line class="e" x1="108.95" y2="32.99" transform="translate(133.9 69.38)"/><line class="e" x1="106.07" y2="167.27" transform="translate(-70.91 96.52)"/><line class="e" x1="48.42" y2="63.89" transform="translate(604.13 1.54)"/><line class="e" x1="48.94" y1="68.09" transform="translate(721.34 40.22)"/><line class="e" x2="68.79" y2="38.68" transform="translate(652.55 1.54)"/><line class="e" y1="25.21" x2="117.21" transform="translate(604.13 40.22)"/><line class="e" y1="91.75" x2="211.98" transform="translate(721.34 -51.53)"/><line class="e" x2="72.02" y2="82.73" transform="translate(933.32 -51.53)"/><line class="e" x1="98.21" y1="18.03" transform="translate(1062.9 26.73)"/><line class="e" x2="5.82" y2="42.64" transform="translate(1057.08 -15.91)"/><line class="e" y1="4.47" x2="57.56" transform="translate(1005.34 26.73)"/><line class="e" y1="60.19" x2="107.81" transform="translate(1161.11 -15.43)"/><line class="e" y1="42.16" x2="206.02" transform="translate(1062.9 -15.43)"/><line class="e" y1="54.12" x2="19.35" transform="translate(242.85 15.26)"/><line class="e" x1="76.79" y1="184.12" transform="translate(435.11 -91.11)"/><line class="e" x2="249.7" y2="77.75" transform="translate(262.2 15.26)"/><line class="e" y1="48.24" x2="37.65" transform="translate(133.9 54.13)"/><line class="e" x1="71.3" y1="15.25" transform="translate(171.55 54.13)"/><line class="e" x1="90.65" y2="38.87" transform="translate(171.55 15.26)"/><line class="e" y1="15.98" x2="93.58" transform="translate(77.97 54.13)"/><line class="e" x1="44.52" y2="143.23" transform="translate(77.97 -73.12)"/><line class="e" y1="36.47" x2="139.52" transform="translate(1753.94 449.14)"/><line class="e" y1="161.32" x2="46.53" transform="translate(1846.93 449.14)"/><line class="e" x1="67.99" y2="40.48" transform="translate(1864.4 662.9)"/><line class="e" x1="307.68" y1="78.64" transform="translate(1733.49 929)"/><line class="e" x1="140.5" y1="212.89" transform="translate(1733.49 929)"/><line class="e" x1="2.92" y1="133.96" transform="translate(1733.49 929)"/><line class="e" y1="134.25" x2="167.18" transform="translate(1873.99 1007.64)"/><line class="e" x1="75.2" y2="79.09" transform="translate(1658.29 929)"/><line class="e" x1="78.12" y1="54.87" transform="translate(1658.29 1008.09)"/><line class="e" x2="61.07" y2="52.91" transform="translate(1597.22 955.18)"/><line class="e" y1="89.05" x2="69.33" transform="translate(1588.96 1008.09)"/><line class="e" x1="8.26" y2="141.96" transform="translate(1588.96 955.18)"/><line class="e" y1="174.55" x2="147.91" transform="translate(1385.86 900.21)"/><line class="e" x1="203.1" y1="22.38" transform="translate(1385.86 1074.76)"/><line class="e" x2="115.29" y2="10" transform="translate(1270.57 1064.76)"/><line class="e" x1="31.05" y2="158.32" transform="translate(1270.57 906.44)"/><line class="e" y1="87.75" x2="50.7" transform="translate(1019.73 81.94)"/><line class="e" x2="65.09" y2="50.74" transform="translate(1005.34 31.2)"/><line class="e" x1="90.68" y2="37.18" transform="translate(1070.43 44.76)"/><line class="e" y1="3.04" x2="224.93" transform="translate(769.61 104.69)"/><line class="e" x1="24.48" y1="64.42" transform="translate(995.25 105.27)"/><line class="e" x1="10.09" y2="74.07" transform="translate(995.25 31.2)"/><line class="e" x2="85.78" y2="51.25" transform="translate(-72.15 611.31)"/><line class="e" x1="107.9" y2="2.72" transform="translate(13.63 659.84)"/><line class="e" x2="81.72" y2="34.4" transform="translate(-46.56 62.12)"/><line class="e" x1="67.99" y2="40.48" transform="translate(-55.35 662.9)"/><line class="e" x1="307.68" y1="78.64" transform="translate(-186.26 929)"/><line class="e" y1="134.25" x2="167.18" transform="translate(-45.76 1007.64)"/><path class="e" d="M352.78-128.33,262.42,15.28,122.91-72.39l-1.22-126.33Z"/><path class="e" d="M932.6-50.96l7.25-110.9L811.51-194.82,652.22,1.63Z"/><line class="e" x2="214.95" y2="91.91" transform="translate(437.27 -90.28)"/><line class="e" x1="51.43" y2="167.77" transform="translate(652.22 -166.14)"/><line class="e" y1="105.56" x2="175.01" transform="translate(262.26 -90.28)"/><line class="e" y1="89.05" x2="69.33" transform="translate(1588.96 -71.32)"/><line class="e" x1="8.26" y2="141.95" transform="translate(1588.96 -124.22)"/><line class="e" x1="203.1" y1="22.37" transform="translate(1385.86 -4.64)"/><line class="e" y1="134.25" x2="167.18" transform="translate(-45.76 -71.77)"/><line class="e" x1="212.08" y1="0.48" transform="translate(1057.21 1063.94)"/><line class="e" x2="50.17" y2="97.01" transform="translate(1006.91 966.49)"/><line class="e" x2="123.76" y2="35.62" transform="translate(933.32 1027.88)"/><line class="e" x1="140.5" y1="212.89" transform="translate(1733.49 -150.41)"/><line class="e" y1="134.25" x2="167.18" transform="translate(1873.99 -71.77)"/><line class="e" x2="81.72" y2="34.4" transform="translate(1873.19 62.12)"/><line class="e" x2="49.91" y2="34.2" transform="translate(895.01 393.95)"/></g></svg>